<svg width="50" height="50" viewBox="0 0 50 50" fill="none" xmlns="http://www.w3.org/2000/svg">
<g clip-path="url(#clip0_1_1103)">
<path d="M29.6773 27.7357V38.6785L19.7894 44.1499V33.2071L29.6773 27.7357Z" fill="#7843E9"/>
<path d="M19.7894 33.2071V44.1499L9.87305 49.6214V38.6785L19.7894 33.2071Z" fill="#7843E9"/>
<path d="M9.87313 49.6214L-0.0146484 44.1499V33.2071L9.87313 38.6785V49.6214Z" fill="#7843E9"/>
<path d="M-0.0146484 22.2643L9.87313 16.793L19.7895 22.2643L9.87313 27.7357L-0.0146484 22.2643Z" fill="#7843E9"/>
<path d="M9.87313 38.6785L-0.0146484 33.2071V22.2643L9.87313 27.7357V38.6785Z" fill="#7843E9"/>
<path d="M19.7895 22.2643L19.7894 11.3215L29.6773 5.85014V16.7929L19.7895 22.2643Z" fill="#7843E9"/>
<path d="M29.6772 16.7929V5.85015L39.5936 0.378769V11.3215L29.6772 16.7929Z" fill="#7843E9"/>
<path d="M39.5938 0.378769L49.4814 5.85015V16.7929L39.5938 11.3215V0.378769Z" fill="#7843E9"/>
<path d="M49.4814 27.7357L39.5937 33.207L29.6772 27.7357L39.5937 22.2643L49.4814 27.7357Z" fill="#7843E9"/>
<path d="M39.5938 11.3215L49.4814 16.7929V27.7357L39.5938 22.2643V11.3215Z" fill="#7843E9"/>
</g>
<defs>
<clipPath id="clip0_1_1103">
<rect width="201" height="50" fill="white"/>
</clipPath>
</defs>
</svg>
