<svg width="155" height="38" viewBox="0 0 155 38" fill="none" xmlns="http://www.w3.org/2000/svg">
<g clip-path="url(#clip0_45_5633)">
<path d="M22.8855 21.0791V29.3956L15.2605 33.5539V25.2373L22.8855 21.0791Z" fill="#7843E9"/>
<path d="M15.2605 25.2373V33.5539L7.61353 37.7122V29.3956L15.2605 25.2373Z" fill="#7843E9"/>
<path d="M7.61355 37.7122L-0.0113525 33.5539V25.2373L7.61355 29.3956V37.7122Z" fill="#7843E9"/>
<path d="M-0.0113525 16.9209L7.61355 12.7627L15.2605 16.9209L7.61355 21.0792L-0.0113525 16.9209Z" fill="#7843E9"/>
<path d="M7.61355 29.3957L-0.0113525 25.2374V16.9209L7.61355 21.0792V29.3957Z" fill="#7843E9"/>
<path d="M15.2605 16.921L15.2605 8.60451L22.8855 4.44629V12.7628L15.2605 16.921Z" fill="#7843E9"/>
<path d="M22.8855 12.7628V4.44634L30.5325 0.288086V8.60456L22.8855 12.7628Z" fill="#7843E9"/>
<path d="M30.5325 0.288086L38.1573 4.44634V12.7628L30.5325 8.60456V0.288086Z" fill="#7843E9"/>
<path d="M38.1573 21.0792L30.5325 25.2374L22.8855 21.0792L30.5325 16.9209L38.1573 21.0792Z" fill="#7843E9"/>
<path d="M30.5325 8.60449L38.1573 12.7628V21.0792L30.5325 16.921V8.60449Z" fill="#7843E9"/>

</g>
<defs>
<clipPath id="clip0_45_5633">
<rect width="155" height="38" fill="white"/>
</clipPath>
</defs>
</svg>
